<mxfile host="Electron" modified="2023-12-28T14:50:00.761Z" agent="Mozilla/5.0 (Windows NT 10.0; Win64; x64) AppleWebKit/537.36 (KHTML, like Gecko) draw.io/22.1.11 Chrome/114.0.5735.289 Electron/25.9.8 Safari/537.36" etag="HBd5rSIJ46ATtZGWDF1t" version="22.1.11" type="device">
  <diagram id="5pv-xm2v4tGbl0628w5p" name="Seite-1">
    <mxGraphModel dx="1421" dy="944" grid="1" gridSize="10" guides="1" tooltips="1" connect="1" arrows="1" fold="1" page="1" pageScale="1" pageWidth="1169" pageHeight="827" math="0" shadow="0">
      <root>
        <mxCell id="0" />
        <mxCell id="1" parent="0" />
        <mxCell id="hkNt6ET-5Y7tYuByN0v7-8" value="" style="rounded=1;whiteSpace=wrap;html=1;verticalAlign=top;fontStyle=1;fontSize=14;arcSize=9;fillColor=#00B3F0;fontColor=#FFFFFF;strokeColor=none;fillStyle=solid;fontFamily=Poppins;fontSource=https%3A%2F%2Ffonts.googleapis.com%2Fcss%3Ffamily%3DPoppins;" parent="1" vertex="1">
          <mxGeometry x="239.995" y="160" width="580" height="200" as="geometry" />
        </mxCell>
        <mxCell id="hkNt6ET-5Y7tYuByN0v7-3" value="&lt;b&gt;Frontend&lt;/b&gt;&lt;br&gt;(TypeScript, nginx, &lt;br&gt;React, React-Admin)" style="rounded=0;whiteSpace=wrap;html=1;fillColor=#0086B4;fontColor=#FFFFFF;strokeColor=#FFFFFF;fillStyle=solid;fontFamily=Poppins;fontSource=https%3A%2F%2Ffonts.googleapis.com%2Fcss%3Ffamily%3DPoppins;" parent="1" vertex="1">
          <mxGeometry x="280" y="220" width="160" height="100" as="geometry" />
        </mxCell>
        <mxCell id="hkNt6ET-5Y7tYuByN0v7-5" value="&lt;b&gt;Database&lt;/b&gt; (MySQL,&lt;br&gt;PostgreSQL)" style="shape=datastore;whiteSpace=wrap;html=1;fillColor=#0086B4;fontColor=#FFFFFF;strokeColor=#FFFFFF;fillStyle=solid;fontFamily=Poppins;fontSource=https%3A%2F%2Ffonts.googleapis.com%2Fcss%3Ffamily%3DPoppins;" parent="1" vertex="1">
          <mxGeometry x="680" y="220" width="100" height="100" as="geometry" />
        </mxCell>
        <mxCell id="hkNt6ET-5Y7tYuByN0v7-9" value="&lt;font style=&quot;font-size: 12px;&quot;&gt;REST API&lt;/font&gt;" style="rounded=0;whiteSpace=wrap;html=1;fontSize=14;verticalAlign=bottom;fillColor=#0086B4;fontColor=#FFFFFF;strokeColor=#FFFFFF;fontFamily=Poppins;fontSource=https%3A%2F%2Ffonts.googleapis.com%2Fcss%3Ffamily%3DPoppins;" parent="1" vertex="1">
          <mxGeometry x="480" y="240" width="160" height="80" as="geometry" />
        </mxCell>
        <mxCell id="hkNt6ET-5Y7tYuByN0v7-4" value="&lt;b&gt;Backend&lt;br&gt;&lt;/b&gt;(Python, Gunicorn, Django)" style="rounded=0;whiteSpace=wrap;html=1;fillColor=#0086B4;fontColor=#FFFFFF;strokeColor=#FFFFFF;fontFamily=Poppins;fontSource=https%3A%2F%2Ffonts.googleapis.com%2Fcss%3Ffamily%3DPoppins;" parent="1" vertex="1">
          <mxGeometry x="500" y="240" width="140" height="60" as="geometry" />
        </mxCell>
        <mxCell id="6WZlBJGOoFtRT0mjI7lp-1" value="&lt;font style=&quot;font-size: 12px;&quot;&gt;Django Admin&lt;/font&gt;" style="rounded=0;whiteSpace=wrap;html=1;fontSize=14;verticalAlign=bottom;fillColor=#0086B4;fontColor=#FFFFFF;strokeColor=#FFFFFF;fillStyle=solid;fontFamily=Poppins;fontSource=https%3A%2F%2Ffonts.googleapis.com%2Fcss%3Ffamily%3DPoppins;" parent="1" vertex="1">
          <mxGeometry x="480" y="220" width="160" height="20" as="geometry" />
        </mxCell>
        <mxCell id="ecLXhJiD1O8WZm1Ju178-1" value="" style="shape=image;aspect=fixed;image=data:image/svg+xml,PD94bWwgdmVyc2lvbj0iMS4wIiBlbmNvZGluZz0iVVRGLTgiIHN0YW5kYWxvbmU9Im5vIj8+CjxzdmcKICAgdmlld0JveD0iMCAwIDQyODQuMDAyNCA0NDgiCiAgIHZlcnNpb249IjEuMSIKICAgaWQ9InN2ZzQiCiAgIHNvZGlwb2RpOmRvY25hbWU9InNlY29ic2VydmVfd2hpdGUuc3ZnIgogICBpbmtzY2FwZTpleHBvcnQtZmlsZW5hbWU9IkZvbnRfQXdlc29tZV81X3NvbGlkX2Jpbm9jdWxhcnMucG5nIgogICBpbmtzY2FwZTpleHBvcnQteGRwaT0iMzIzLjQ3IgogICBpbmtzY2FwZTpleHBvcnQteWRwaT0iMzIzLjQ3IgogICBpbmtzY2FwZTp2ZXJzaW9uPSIxLjIuMSAoOWM2ZDQxZTQxMCwgMjAyMi0wNy0xNCkiCiAgIHdpZHRoPSI0Mjg0LjAwMjQiCiAgIGhlaWdodD0iNDQ4IgogICB4bWxuczppbmtzY2FwZT0iaHR0cDovL3d3dy5pbmtzY2FwZS5vcmcvbmFtZXNwYWNlcy9pbmtzY2FwZSIKICAgeG1sbnM6c29kaXBvZGk9Imh0dHA6Ly9zb2RpcG9kaS5zb3VyY2Vmb3JnZS5uZXQvRFREL3NvZGlwb2RpLTAuZHRkIgogICB4bWxucz0iaHR0cDovL3d3dy53My5vcmcvMjAwMC9zdmciCiAgIHhtbG5zOnN2Zz0iaHR0cDovL3d3dy53My5vcmcvMjAwMC9zdmciPgogIDxkZWZzCiAgICAgaWQ9ImRlZnM4IiAvPgogIDxzb2RpcG9kaTpuYW1lZHZpZXcKICAgICBpZD0ibmFtZWR2aWV3NiIKICAgICBwYWdlY29sb3I9IiNmZmZmZmYiCiAgICAgYm9yZGVyY29sb3I9IiM2NjY2NjYiCiAgICAgYm9yZGVyb3BhY2l0eT0iMS4wIgogICAgIGlua3NjYXBlOnNob3dwYWdlc2hhZG93PSIyIgogICAgIGlua3NjYXBlOnBhZ2VvcGFjaXR5PSIwLjAiCiAgICAgaW5rc2NhcGU6cGFnZWNoZWNrZXJib2FyZD0iMCIKICAgICBpbmtzY2FwZTpkZXNrY29sb3I9IiNkMWQxZDEiCiAgICAgc2hvd2dyaWQ9ImZhbHNlIgogICAgIGlua3NjYXBlOnpvb209IjAuMzM4NDY4NTQiCiAgICAgaW5rc2NhcGU6Y3g9IjIxNDMuNDc4NCIKICAgICBpbmtzY2FwZTpjeT0iMjMxLjkyNzAyIgogICAgIGlua3NjYXBlOmN1cnJlbnQtbGF5ZXI9InN2ZzQiIC8+CiAgPHBhdGgKICAgICBkPSJNIDQxNiwxNi4wMDAwMTYgQyA0MTYsNy4xNjAwMTU3IDQwOC44NCwxLjU2OTE0MDZlLTUgNDAwLDEuNTY5MTQwNmUtNSBoIC02NCBjIC04Ljg0LDAgLTE2LDcuMTYwMDAwMDA4NTk0IC0xNiwxNi4wMDAwMDAzMDg1OTQgdiA0Ny45OTk5OTggaCA5NiB6IE0gNjMuOTEsMTI3Ljk5MDAxIGMgLTIuNTEsOTMuODUgLTYwLjQ1LDExNC4yMyAtNjMuOTEsMjQ0LjAxIHYgNDQgYyAwLDE3LjY3IDE0LjMzLDMyIDMyLDMyIGggOTYgYyAxNy42NywwIDMyLC0xNC4zMyAzMiwtMzIgdiAtMTYwIGggMzIgViA5Ni4wMDAwMTQgSCA5NS44NCBjIC0xNy42MywwIC0zMS40NSwxNC4zNjk5OTYgLTMxLjkzLDMxLjk4OTk5NiB6IG0gMzg0LjE4LDAgYyAtMC40OCwtMTcuNjIgLTE0LjMsLTMxLjk4OTk5NiAtMzEuOTMsLTMxLjk4OTk5NiBIIDMyMCBWIDI1Ni4wMDAwMSBoIDMyIHYgMTYwIGMgMCwxNy42NyAxNC4zMywzMiAzMiwzMiBoIDk2IGMgMTcuNjcsMCAzMiwtMTQuMzMgMzIsLTMyIHYgLTQ0IGMgLTMuNDYsLTEyOS43OCAtNjEuNCwtMTUwLjE2IC02My45MSwtMjQ0LjAxIHogTSAxNzYsMS41NjkxNDA2ZS01IEggMTEyIEMgMTAzLjE2LDEuNTY5MTQwNmUtNSA5Niw3LjE2MDAxNTcgOTYsMTYuMDAwMDE2IHYgNDcuOTk5OTk4IGggOTYgViAxNi4wMDAwMTYgQyAxOTIsNy4xNjAwMTU3IDE4NC44NCwxLjU2OTE0MDZlLTUgMTc2LDEuNTY5MTQwNmUtNSBaIE0gMjI0LDI1Ni4wMDAwMSBoIDY0IFYgOTYuMDAwMDE0IGggLTY0IHoiCiAgICAgaWQ9InBhdGgyIgogICAgIHN0eWxlPSJmaWxsOiNmZmZmZmY7ZmlsbC1vcGFjaXR5OjEiIC8+CiAgPGcKICAgICBhcmlhLWxhYmVsPSJTZWNPYnNlcnZlIgogICAgIGlkPSJ0ZXh0MTY0IgogICAgIHN0eWxlPSJmb250LXNpemU6NjE3LjkzMXB4O2xpbmUtaGVpZ2h0OjM4Ni4yMDdweDtmb250LWZhbWlseTonQml0c3RyZWFtIFZlcmEgU2Fucyc7bGV0dGVyLXNwYWNpbmc6MHB4O3dvcmQtc3BhY2luZzowcHg7ZmlsbDojZmZmZmZmO3N0cm9rZS13aWR0aDoxNS40NDgzcHgiPgogICAgPHBhdGgKICAgICAgIGQ9Im0gOTUxLjUwMjMxLDE1NS43MTg2MSBxIC0wLjYxNzkzLC0xNy45MiAtMTIuMzU4NjIsLTI5LjY2MDY5IFEgOTI3LjQwMywxMTMuNjk5MyA5MDEuNDQ5OSwxMTMuNjk5MyBxIC0yNy4xODg5NywwIC0zOC45Mjk2NiwxMi45NzY1NSAtMTEuMTIyNzUsMTIuMzU4NjIgLTExLjEyMjc1LDI4LjQyNDgzIDAsMTcuMzAyMDYgMTQuODMwMzQsMjQuNzE3MjQgMTQuODMwMzQsNi43OTcyNCAzNy4wNzU4NiwxMS43NDA2OSAyMi4yNDU1Miw0LjMyNTUxIDQ4LjE5ODYyLDkuMjY4OTYgMjUuOTUzMTEsNC45NDM0NSA0OC4xOTg2MiwxNy4zMDIwNyAyMi4yNDU0NywxMi4zNTg2MiAzNy4wNzU4NywzNS44NCAxNC44MzAzLDIyLjg2MzQ1IDE0LjgzMDMsNjMuMDI4OTcgMCwzMC4yNzg2MiAtMTEuMTIyNyw1NC4zNzc5MyAtMTAuNTA0OCwyNC4wOTkzMSAtMzAuODk2Niw0MS40MDEzNyAtMTkuNzczNzYsMTYuNjg0MTQgLTQ4LjE5ODU5LDI1Ljk1MzExIC0yNy44MDY5LDkuMjY4OTYgLTYxLjc5MzEsOS4yNjg5NiAtMzMuOTg2MjEsMCAtNjEuNzkzMTEsLTkuMjY4OTYgLTI3LjE4ODk2LC04LjY1MTA0IC00Ny41ODA2OSwtMjQuNzE3MjQgLTE5Ljc3Mzc5LC0xNi42ODQxNCAtMzAuODk2NTUsLTQwLjE2NTUyIC0xMS4xMjI3NiwtMjMuNDgxMzggLTExLjc0MDY5LC01My4xNDIwNyBoIDk3LjYzMzExIHEgMCwxOS4xNTU4NiAxMi4zNTg2MiwzMC4yNzg2MiAxMi4zNTg2MiwxMS4xMjI3NiA0Mi4wMTkzMSwxMS4xMjI3NiAyOS42NjA2OSwwIDQyLjAxOTMxLC0xMS4xMjI3NiAxMi4zNTg2MiwtMTEuMTIyNzYgMTIuMzU4NjIsLTMwLjI3ODYyIDAsLTEyLjk3NjU1IC04LjY1MTA0LC0xOS43NzM3OSAtOC42NTEwMywtNy40MTUxNyAtMjIuODYzNDUsLTExLjEyMjc2IC0xMy41OTQ0OCwtNC4zMjU1MiAtMzEuNTE0NDgsLTcuNDE1MTcgLTE3LjkyLC0zLjA4OTY2IC0zNi40NTc5MywtNy40MTUxNyAtMTguNTM3OTMsLTQuMzI1NTIgLTM2LjQ1NzkzLC0xMS43NDA2OSAtMTcuOTIsLTcuNDE1MTggLTMyLjEzMjQxLC0yMC4zOTE3MyAtMTMuNTk0NDksLTEyLjk3NjU1IC0yMi4yNDU1MiwtMzMuMzY4MjcgLTguNjUxMDQsLTIwLjM5MTczIC04LjY1MTA0LC01MC42NzAzNSAwLC0yOC40MjQ4MyAxMC41MDQ4MywtNTIuNTI0MTQgMTAuNTA0ODMsLTI0LjA5OTMwNiAyOS4wNDI3NiwtNDEuNDAxMzc1IDE5LjE1NTg2LC0xNy45MiA0NS43MjY5LC0yNy4xODg5NjYgMjcuMTg4OTYsLTkuODg2ODk2IDU5LjkzOTMxLC05Ljg4Njg5NiAzMS41MTQ0OCwwIDU3LjQ2NzU4LDkuMjY4OTY1IDI2LjU3MTA0LDkuMjY4OTY2IDQ1LjcyNjg4LDI1Ljk1MzEwNCAxOS4xNTU5LDE2LjY4NDEzNyAyOS42NjA3LDQwLjc4MzQ0OCAxMS4xMjI4LDIzLjQ4MTM4IDEyLjM1ODYsNTEuOTA2MjEgeiIKICAgICAgIHN0eWxlPSJmb250LWZhbWlseTpBbGxSb3VuZEdvdGhpY1cwMS1Cb2xkOy1pbmtzY2FwZS1mb250LXNwZWNpZmljYXRpb246J0FsbFJvdW5kR290aGljVzAxLUJvbGQsIE5vcm1hbCciCiAgICAgICBpZD0icGF0aDI4OSIgLz4KICAgIDxwYXRoCiAgICAgICBkPSJtIDExODUuNjk4LDMxMi4wNTUxNiB2IDEuMjM1ODYgcSA2LjE3OTMsMjUuMzM1MTcgMjQuMDk5MywzOC4zMTE3MiAxNy45MiwxMi4zNTg2MiA0My44NzMxLDEyLjM1ODYyIDE5Ljc3MzgsMCAzNC42MDQyLC00Ljk0MzQ0IDE0LjgzMDMsLTQuOTQzNDUgMjMuNDgxMywtMTcuMzAyMDcgaCA5NS43NzkzIHEgLTE0LjgzMDMsNDcuNTgwNjkgLTU1LjYxMzcsNzYuNjIzNDQgLTQwLjc4MzUsMjguNDI0ODMgLTk4LjI1MTEsMjguNDI0ODMgLTM2LjQ1NzksMCAtNjYuNzM2NSwtMTEuNzQwNjkgLTI5LjY2MDcsLTEyLjM1ODYyIC01MS45MDYyLC0zMy4zNjgyNyAtMjEuNjI3NiwtMjEuNjI3NTkgLTMzLjk4NjIsLTUxLjI4ODI4IC0xMS43NDA3LC0yOS42NjA2OSAtMTEuNzQwNywtNjQuMjY0ODMgMCwtMzQuNjA0MTMgMTEuNzQwNywtNjQuMjY0ODIgMTIuMzU4NiwtMjkuNjYwNjkgMzMuOTg2MiwtNTAuNjcwMzUgMjIuMjQ1NSwtMjEuNjI3NTggNTEuOTA2MiwtMzMuMzY4MjcgMzAuMjc4NiwtMTIuMzU4NjIgNjYuNzM2NSwtMTIuMzU4NjIgMzUuODQsMCA2NS41MDA3LDEyLjM1ODYyIDMwLjI3ODYsMTEuNzQwNjkgNTEuOTA2MiwzMy4zNjgyNyAyMS42Mjc2LDIxLjAwOTY2IDMzLjM2ODMsNTAuNjcwMzUgMTEuNzQwNywyOS42NjA2OSAxMS43NDA3LDY0LjI2NDgyIHYgMjUuOTUzMTEgeiBtIDY3Ljk3MjQsLTEwMy44MTI0MiBxIC0yNC4wOTkzLDAgLTQxLjQwMTQsMTEuMTIyNzYgLTE3LjMwMiwxMS4xMjI3NiAtMjQuNzE3MiwzMi43NTAzNSB2IDEuMjM1ODYgaCAxMzMuNDczMSB2IC0xLjIzNTg2IHEgLTguMDMzMSwtMjEuNjI3NTkgLTI1Ljk1MzEsLTMyLjc1MDM1IC0xNy4zMDIxLC0xMS4xMjI3NiAtNDEuNDAxNCwtMTEuMTIyNzYgeiIKICAgICAgIHN0eWxlPSJmb250LWZhbWlseTpBbGxSb3VuZEdvdGhpY1cwMS1Cb2xkOy1pbmtzY2FwZS1mb250LXNwZWNpZmljYXRpb246J0FsbFJvdW5kR290aGljVzAxLUJvbGQsIE5vcm1hbCciCiAgICAgICBpZD0icGF0aDI5MSIgLz4KICAgIDxwYXRoCiAgICAgICBkPSJtIDE2ODEuODk2NSwyNTMuMzUxNzEgcSAtOC4wMzMxLC0xOS4xNTU4NiAtMjUuMzM1MSwtMzAuMjc4NjIgLTE2LjY4NDIsLTExLjEyMjc2IC00MC4xNjU1LC0xMS4xMjI3NiAtMzEuNTE0NSwwIC01MS4yODgzLDIwLjM5MTcyIC0xOS4xNTU5LDIwLjM5MTczIC0xOS4xNTU5LDUzLjc2IDAsMzMuMzY4MjggMTkuMTU1OSw1My43NiAxOS43NzM4LDIwLjM5MTczIDUxLjI4ODMsMjAuMzkxNzMgMjMuNDgxMywwIDQwLjE2NTUsLTExLjEyMjc2IDE3LjMwMiwtMTEuMTIyNzYgMjUuMzM1MSwtMzAuMjc4NjIgaCA5My45MjU2IHEgLTQuOTQzNSwyOC40MjQ4MyAtMTguNTM4LDUxLjkwNjIgLTEzLjU5NDUsMjMuNDgxMzggLTM0LjYwNDEsNDAuNzgzNDUgLTIwLjM5MTcsMTYuNjg0MTQgLTQ3LjU4MDcsMjUuOTUzMTEgLTI3LjE4OSw5LjI2ODk2IC01OC43MDM0LDkuMjY4OTYgLTM2LjQ1OCwwIC02Ni43MzY2LC0xMS43NDA2OSAtMjkuNjYwNywtMTIuMzU4NjIgLTUxLjkwNjIsLTMzLjM2ODI3IC0yMS42Mjc2LC0yMS42Mjc1OSAtMzMuOTg2MiwtNTEuMjg4MjggLTExLjc0MDcsLTI5LjY2MDY5IC0xMS43NDA3LC02NC4yNjQ4MyAwLC0zNC42MDQxMyAxMS43NDA3LC02NC4yNjQ4MiAxMi4zNTg2LC0yOS42NjA2OSAzMy45ODYyLC01MC42NzAzNSAyMi4yNDU1LC0yMS42Mjc1OCA1MS45MDYyLC0zMy4zNjgyNyAzMC4yNzg2LC0xMi4zNTg2MiA2Ni43MzY2LC0xMi4zNTg2MiAzMS41MTQ0LDAgNTguNzAzNCw5LjI2ODk2IDI3LjE4OSw5LjI2ODk3IDQ3LjU4MDcsMjYuNTcxMDQgMjEuMDA5NiwxNi42ODQxMyAzNC42MDQxLDQwLjE2NTUxIDEzLjU5NDUsMjMuNDgxMzggMTguNTM4LDUxLjkwNjIxIHoiCiAgICAgICBzdHlsZT0iZm9udC1mYW1pbHk6QWxsUm91bmRHb3RoaWNXMDEtQm9sZDstaW5rc2NhcGUtZm9udC1zcGVjaWZpY2F0aW9uOidBbGxSb3VuZEdvdGhpY1cwMS1Cb2xkLCBOb3JtYWwnIgogICAgICAgaWQ9InBhdGgyOTMiIC8+CiAgICA8cGF0aAogICAgICAgZD0ibSAyMjQzLjU5NTksMjM2LjY2NzU3IHEgMCw0NS43MjY5IC0xNi4wNjYyLDg0LjAzODYyIC0xNS40NDgzLDM4LjMxMTczIC00NC40OTExLDY2LjczNjU1IC0yOC40MjQ4LDI3LjgwNjkgLTY3Ljk3MjQsNDMuODczMTEgLTM5LjU0NzYsMTUuNDQ4MjcgLTg2LjUxMDMsMTUuNDQ4MjcgLTQ3LjU4MDcsMCAtODcuMTI4MywtMTUuNDQ4MjcgLTM4LjkyOTcsLTE2LjA2NjIxIC02Ny45NzI0LC00My44NzMxMSAtMjguNDI0OCwtMjguNDI0ODIgLTQ0LjQ5MSwtNjYuNzM2NTUgLTE1LjQ0ODMsLTM4LjMxMTcyIC0xNS40NDgzLC04NC4wMzg2MiAwLC00NS4xMDg5NiAxNS40NDgzLC04My40MjA2OSAxNi4wNjYyLC0zOC45Mjk2NSA0NC40OTEsLTY2LjczNjU0OSAyOS4wNDI3LC0yOC40MjQ4MjggNjcuOTcyNCwtNDMuODczMTAzIDM5LjU0NzYsLTE2LjA2NjIwNyA4Ny4xMjgzLC0xNi4wNjYyMDcgNDYuOTYyNywwIDg2LjUxMDMsMTYuMDY2MjA3IDM5LjU0NzYsMTUuNDQ4Mjc1IDY3Ljk3MjQsNDMuODczMTAzIDI5LjA0MjgsMjcuODA2ODk5IDQ0LjQ5MTEsNjYuNzM2NTQ5IDE2LjA2NjIsMzguMzExNzMgMTYuMDY2Miw4My40MjA2OSB6IG0gLTIxNS4wNCwxMTcuNDA2OSBxIDI1Ljk1MzEsMCA0Ni45NjI3LC04LjY1MTA0IDIxLjAwOTcsLTguNjUxMDMgMzUuODQsLTI0LjA5OTMxIDE0LjgzMDQsLTE2LjA2NjIgMjIuODYzNSwtMzcuNjkzNzkgOC4wMzMxLC0yMS42Mjc1OSA4LjAzMzEsLTQ2Ljk2Mjc2IDAsLTI1LjMzNTE3IC04LjAzMzEsLTQ2Ljk2Mjc2IC04LjAzMzEsLTIxLjYyNzU4IC0yMi44NjM1LC0zNy4wNzU4NiAtMTQuODMwMywtMTYuMDY2MjEgLTM1Ljg0LC0yNC43MTcyNCAtMjEuMDA5NiwtOC42NTEwMyAtNDYuOTYyNywtOC42NTEwMyAtMjUuOTUzMSwwIC00Ni45NjI4LDguNjUxMDMgLTIxLjAwOTYsOC42NTEwMyAtMzUuODQsMjQuNzE3MjQgLTE0LjgzMDMsMTUuNDQ4MjggLTIyLjg2MzQsMzcuMDc1ODYgLTguMDMzMSwyMS42Mjc1OSAtOC4wMzMxLDQ2Ljk2Mjc2IDAsMjUuMzM1MTcgOC4wMzMxLDQ2Ljk2Mjc2IDguMDMzMSwyMS42Mjc1OSAyMi44NjM0LDM3LjY5Mzc5IDE0LjgzMDQsMTUuNDQ4MjggMzUuODQsMjQuMDk5MzEgMjEuMDA5Nyw4LjY1MTA0IDQ2Ljk2MjgsOC42NTEwNCB6IgogICAgICAgc3R5bGU9ImZvbnQtZmFtaWx5OkFsbFJvdW5kR290aGljVzAxLUJvbGQ7LWlua3NjYXBlLWZvbnQtc3BlY2lmaWNhdGlvbjonQWxsUm91bmRHb3RoaWNXMDEtQm9sZCwgTm9ybWFsJyIKICAgICAgIGlkPSJwYXRoMjk1IiAvPgogICAgPHBhdGgKICAgICAgIGQ9Im0gMjI5NC44ODQxLC0xLjM0Mjc3MzRlLTUgaCA5Mi42ODk2IFYgMTY0Ljk4NzU3IGggMS4yMzU5IHEgMTIuOTc2NiwtMTcuOTIgMzUuMjIyMSwtMjguNDI0ODMgMjIuMjQ1NSwtMTEuMTIyNzUgNTEuOTA2MiwtMTEuMTIyNzUgMjQuMDk5MywwIDUwLjA1MjQsOS4yNjg5NiAyNS45NTMxLDkuMjY4OTcgNDYuOTYyOCwyOS4wNDI3NiAyMS42Mjc1LDE5LjE1NTg2IDM1LjIyMiw0OS40MzQ0OCAxNC4yMTI0LDMwLjI3ODYyIDE0LjIxMjQsNzIuOTE1ODYgMCwzNC42MDQxNCAtMTIuMzU4Niw2NC4yNjQ4MyAtMTEuNzQwNywyOS42NjA2OSAtMzMuOTg2Miw1MS4yODgyOCAtMjEuNjI3NiwyMS4wMDk2NSAtNTEuOTA2MiwzMy4zNjgyNyAtMzAuMjc4NiwxMS43NDA2OSAtNjYuMTE4NiwxMS43NDA2OSAtMzYuNDU3OSwwIC02Ni43MzY2LC0xMS4xMjI3NiAtMjkuNjYwNywtMTEuNzQwNjkgLTUxLjI4ODIsLTMyLjc1MDM0IC0yMS4wMDk3LC0yMS42Mjc1OSAtMzMuMzY4MywtNTEuOTA2MjEgLTExLjc0MDcsLTMwLjI3ODYyIC0xMS43NDA3LC02Ny45NzI0MSB6IE0gMjQ1OC4wMTc5LDM2MC4yNTM3OCBxIDMxLjUxNDUsMCA1MC42NzAzLC0yMC4zOTE3MyAxOS43NzM4LC0yMC4zOTE3MiAxOS43NzM4LC01My43NiAwLC0zMy4zNjgyNyAtMTkuNzczOCwtNTMuNzYgLTE5LjE1NTgsLTIwLjM5MTcyIC01MC42NzAzLC0yMC4zOTE3MiAtMzEuNTE0NSwwIC01MS4yODgzLDIwLjM5MTcyIC0xOS4xNTU5LDIwLjM5MTczIC0xOS4xNTU5LDUzLjc2IDAsMzMuMzY4MjggMTkuMTU1OSw1My43NiAxOS43NzM4LDIwLjM5MTczIDUxLjI4ODMsMjAuMzkxNzMgeiIKICAgICAgIHN0eWxlPSJmb250LWZhbWlseTpBbGxSb3VuZEdvdGhpY1cwMS1Cb2xkOy1pbmtzY2FwZS1mb250LXNwZWNpZmljYXRpb246J0FsbFJvdW5kR290aGljVzAxLUJvbGQsIE5vcm1hbCciCiAgICAgICBpZD0icGF0aDI5NyIgLz4KICAgIDxwYXRoCiAgICAgICBkPSJtIDI4MjIuNTk3LDIyNC4zMDg5NSBxIC0xLjg1MzgsLTEwLjUwNDgzIC0xMC41MDQ4LC0xNi4wNjYyMSAtOC42NTEsLTYuMTc5MzEgLTIyLjI0NTUsLTYuMTc5MzEgLTE3LjkyLDAgLTI1LjMzNTIsNy40MTUxOCAtNy40MTUyLDcuNDE1MTcgLTcuNDE1MiwxOC41Mzc5MyAwLDEwLjUwNDgyIDExLjc0MDcsMTQuODMwMzQgMTIuMzU4Niw0LjMyNTUyIDMwLjI3ODYsNy40MTUxNyAxNy45MiwzLjA4OTY2IDM4LjkyOTcsNi43OTcyNSAyMS4wMDk3LDMuNzA3NTggMzguOTI5NywxMi45NzY1NSAxNy45Miw5LjI2ODk2IDI5LjY2MDYsMjYuNTcxMDMgMTIuMzU4NywxNy4zMDIwNyAxMi4zNTg3LDQ3LjU4MDY5IDAsMjIuMjQ1NTIgLTkuMjY5LDQxLjQwMTM4IC05LjI2OSwxOC41Mzc5MyAtMjYuNTcxLDMyLjEzMjQxIC0xNi42ODQyLDEzLjU5NDQ5IC00MC43ODM1LDIxLjAwOTY2IC0yNC4wOTkzLDguMDMzMSAtNTMuNzYsOC4wMzMxIC0yOS42NjA3LDAgLTUzLjc2LC03LjQxNTE3IC0yMy40ODE0LC03LjQxNTE3IC00MC43ODM0LC0yMS4wMDk2NiAtMTYuNjg0MiwtMTMuNTk0NDggLTI1Ljk1MzEsLTMxLjUxNDQ4IC05LjI2OSwtMTguNTM3OTMgLTkuODg2OSwtNDAuNzgzNDUgaCA5MS40NTM4IHEgMC42MTc5LDI0LjA5OTMxIDM3LjY5MzgsMjQuMDk5MzEgMjIuMjQ1NSwwIDI5LjY2MDYsLTYuNzk3MjQgOC4wMzMyLC02Ljc5NzI0IDguMDMzMiwtMTkuMTU1ODYgMCwtMTAuNTA0ODMgLTEyLjM1ODcsLTE0LjgzMDM0IC0xMS43NDA3LC00LjMyNTUyIC0yOS42NjA3LC03LjQxNTE4IC0xNy45MiwtMy4wODk2NSAtMzguOTI5NiwtNi43OTcyNCAtMjEuMDA5NywtMy43MDc1OCAtMzguOTI5NywtMTIuOTc2NTUgLTE3LjkyLC05LjI2ODk3IC0zMC4yNzg2LC0yNi41NzEwMyAtMTEuNzQwNywtMTcuMzAyMDcgLTExLjc0MDcsLTQ3LjU4MDY5IDAsLTIyLjI0NTUyIDguNjUxMSwtNDAuNzgzNDUgOS4yNjg5LC0xOC41Mzc5MyAyNS4zMzUxLC0zMi4xMzI0MSAxNi4wNjYyLC0xNC4yMTI0MiAzOC45Mjk3LC0yMS42Mjc1OSAyMy40ODE0LC04LjAzMzEgNTEuOTA2MiwtOC4wMzMxIDI4LjQyNDgsMCA1MS4yODgzLDguMDMzMSAyMi44NjM0LDcuNDE1MTcgMzguOTI5NiwyMS4wMDk2NSAxNi4wNjYyLDEyLjk3NjU2IDI0LjcxNzMsMzEuNTE0NDkgOS4yNjg5LDE3LjkyIDkuODg2OSwzOC4zMTE3MiB6IgogICAgICAgc3R5bGU9ImZvbnQtZmFtaWx5OkFsbFJvdW5kR290aGljVzAxLUJvbGQ7LWlua3NjYXBlLWZvbnQtc3BlY2lmaWNhdGlvbjonQWxsUm91bmRHb3RoaWNXMDEtQm9sZCwgTm9ybWFsJyIKICAgICAgIGlkPSJwYXRoMjk5IiAvPgogICAgPHBhdGgKICAgICAgIGQ9Im0gMzA1MS4yMzEzLDMxMi4wNTUxNiB2IDEuMjM1ODYgcSA2LjE3OTMsMjUuMzM1MTcgMjQuMDk5MywzOC4zMTE3MiAxNy45MiwxMi4zNTg2MiA0My44NzMxLDEyLjM1ODYyIDE5Ljc3MzgsMCAzNC42MDQyLC00Ljk0MzQ0IDE0LjgzMDMsLTQuOTQzNDUgMjMuNDgxMywtMTcuMzAyMDcgaCA5NS43NzkzIHEgLTE0LjgzMDMsNDcuNTgwNjkgLTU1LjYxMzcsNzYuNjIzNDQgLTQwLjc4MzUsMjguNDI0ODMgLTk4LjI1MTEsMjguNDI0ODMgLTM2LjQ1NzksMCAtNjYuNzM2NSwtMTEuNzQwNjkgLTI5LjY2MDcsLTEyLjM1ODYyIC01MS45MDYyLC0zMy4zNjgyNyAtMjEuNjI3NiwtMjEuNjI3NTkgLTMzLjk4NjIsLTUxLjI4ODI4IC0xMS43NDA3LC0yOS42NjA2OSAtMTEuNzQwNywtNjQuMjY0ODMgMCwtMzQuNjA0MTMgMTEuNzQwNywtNjQuMjY0ODIgMTIuMzU4NiwtMjkuNjYwNjkgMzMuOTg2MiwtNTAuNjcwMzUgMjIuMjQ1NSwtMjEuNjI3NTggNTEuOTA2MiwtMzMuMzY4MjcgMzAuMjc4NiwtMTIuMzU4NjIgNjYuNzM2NSwtMTIuMzU4NjIgMzUuODQsMCA2NS41MDA3LDEyLjM1ODYyIDMwLjI3ODYsMTEuNzQwNjkgNTEuOTA2MiwzMy4zNjgyNyAyMS42Mjc2LDIxLjAwOTY2IDMzLjM2ODMsNTAuNjcwMzUgMTEuNzQwNywyOS42NjA2OSAxMS43NDA3LDY0LjI2NDgyIHYgMjUuOTUzMTEgeiBtIDY3Ljk3MjQsLTEwMy44MTI0MiBxIC0yNC4wOTkzLDAgLTQxLjQwMTQsMTEuMTIyNzYgLTE3LjMwMiwxMS4xMjI3NiAtMjQuNzE3MiwzMi43NTAzNSB2IDEuMjM1ODYgaCAxMzMuNDczMSB2IC0xLjIzNTg2IHEgLTguMDMzMSwtMjEuNjI3NTkgLTI1Ljk1MzEsLTMyLjc1MDM1IC0xNy4zMDIxLC0xMS4xMjI3NiAtNDEuNDAxNCwtMTEuMTIyNzYgeiIKICAgICAgIHN0eWxlPSJmb250LWZhbWlseTpBbGxSb3VuZEdvdGhpY1cwMS1Cb2xkOy1pbmtzY2FwZS1mb250LXNwZWNpZmljYXRpb246J0FsbFJvdW5kR290aGljVzAxLUJvbGQsIE5vcm1hbCciCiAgICAgICBpZD0icGF0aDMwMSIgLz4KICAgIDxwYXRoCiAgICAgICBkPSJtIDM1MTEuNTg5NywyNjcuNTY0MTIgdiAtMi40NzE3MiBxIDAsLTMwLjg5NjU1IC0xMi4zNTg2LC00Mi4wMTkzMSAtMTIuMzU4NiwtMTEuMTIyNzYgLTMyLjEzMjQsLTExLjEyMjc2IC0xOS43NzM4LDAgLTMyLjEzMjQsMTEuMTIyNzYgLTEyLjM1ODYsMTEuMTIyNzYgLTEyLjM1ODYsNDIuMDE5MzEgViA0MzguNzMxMDIgSCAzMzI5LjkxOCBWIDI2NS4wOTI0IHEgMCwtMzUuODQgOS44ODY5LC02MS43OTMxIDkuODg2OSwtMjYuNTcxMDQgMjcuODA2OSwtNDMuODczMTEgMTguNTM3OSwtMTcuMzAyMDcgNDMuMjU1MiwtMjUuMzM1MTcgMjUuMzM1MiwtOC42NTEwMyA1Ni4yMzE3LC04LjY1MTAzIDMwLjg5NjYsMCA1Ni4yMzE3LDguNjUxMDMgMjUuMzM1Miw4LjAzMzEgNDMuMjU1MiwyNS45NTMxIDE3LjkyLDE3LjMwMjA3IDI3LjgwNjksNDQuNDkxMDQgOS44ODY5LDI2LjU3MTAzIDkuODg2OSw2My4wMjg5NiB6IgogICAgICAgc3R5bGU9ImZvbnQtZmFtaWx5OkFsbFJvdW5kR290aGljVzAxLUJvbGQ7LWlua3NjYXBlLWZvbnQtc3BlY2lmaWNhdGlvbjonQWxsUm91bmRHb3RoaWNXMDEtQm9sZCwgTm9ybWFsJyIKICAgICAgIGlkPSJwYXRoMzAzIiAvPgogICAgPHBhdGgKICAgICAgIGQ9Ik0gMzcyMi45MjE4LDQzOC43MzEwMiAzNjEzLjU0OCwxMzMuNDczMDkgaCA5OS40ODY5IGwgNjYuNzM2NiwyMTUuMDQgaCAxLjIzNTggbCA2Ni43MzY2LC0yMTUuMDQgaCA5Ny4wMTUxIGwgLTEwOS4zNzM4LDMwNS4yNTc5MyB6IgogICAgICAgc3R5bGU9ImZvbnQtZmFtaWx5OkFsbFJvdW5kR290aGljVzAxLUJvbGQ7LWlua3NjYXBlLWZvbnQtc3BlY2lmaWNhdGlvbjonQWxsUm91bmRHb3RoaWNXMDEtQm9sZCwgTm9ybWFsJyIKICAgICAgIGlkPSJwYXRoMzA1IiAvPgogICAgPHBhdGgKICAgICAgIGQ9Im0gNDA1My41MTQsMzEyLjA1NTE2IHYgMS4yMzU4NiBxIDYuMTc5MywyNS4zMzUxNyAyNC4wOTkzLDM4LjMxMTcyIDE3LjkyLDEyLjM1ODYyIDQzLjg3MzEsMTIuMzU4NjIgMTkuNzczOCwwIDM0LjYwNDIsLTQuOTQzNDQgMTQuODMwMywtNC45NDM0NSAyMy40ODEzLC0xNy4zMDIwNyBoIDk1Ljc3OTQgcSAtMTQuODMwNCw0Ny41ODA2OSAtNTUuNjEzOCw3Ni42MjM0NCAtNDAuNzgzNSwyOC40MjQ4MyAtOTguMjUxMSwyOC40MjQ4MyAtMzYuNDU3OSwwIC02Ni43MzY1LC0xMS43NDA2OSAtMjkuNjYwNywtMTIuMzU4NjIgLTUxLjkwNjIsLTMzLjM2ODI3IC0yMS42Mjc2LC0yMS42Mjc1OSAtMzMuOTg2MiwtNTEuMjg4MjggLTExLjc0MDcsLTI5LjY2MDY5IC0xMS43NDA3LC02NC4yNjQ4MyAwLC0zNC42MDQxMyAxMS43NDA3LC02NC4yNjQ4MiAxMi4zNTg2LC0yOS42NjA2OSAzMy45ODYyLC01MC42NzAzNSAyMi4yNDU1LC0yMS42Mjc1OCA1MS45MDYyLC0zMy4zNjgyNyAzMC4yNzg2LC0xMi4zNTg2MiA2Ni43MzY1LC0xMi4zNTg2MiAzNS44NCwwIDY1LjUwMDcsMTIuMzU4NjIgMzAuMjc4NiwxMS43NDA2OSA1MS45MDYyLDMzLjM2ODI3IDIxLjYyNzYsMjEuMDA5NjYgMzMuMzY4Myw1MC42NzAzNSAxMS43NDA3LDI5LjY2MDY5IDExLjc0MDcsNjQuMjY0ODIgdiAyNS45NTMxMSB6IG0gNjcuOTcyNCwtMTAzLjgxMjQyIHEgLTI0LjA5OTMsMCAtNDEuNDAxMywxMS4xMjI3NiAtMTcuMzAyMSwxMS4xMjI3NiAtMjQuNzE3MywzMi43NTAzNSB2IDEuMjM1ODYgaCAxMzMuNDczMSB2IC0xLjIzNTg2IHEgLTguMDMzMSwtMjEuNjI3NTkgLTI1Ljk1MzEsLTMyLjc1MDM1IC0xNy4zMDIxLC0xMS4xMjI3NiAtNDEuNDAxNCwtMTEuMTIyNzYgeiIKICAgICAgIHN0eWxlPSJmb250LWZhbWlseTpBbGxSb3VuZEdvdGhpY1cwMS1Cb2xkOy1pbmtzY2FwZS1mb250LXNwZWNpZmljYXRpb246J0FsbFJvdW5kR290aGljVzAxLUJvbGQsIE5vcm1hbCciCiAgICAgICBpZD0icGF0aDMwNyIgLz4KICA8L2c+Cjwvc3ZnPgo=;fontFamily=Poppins;fontSource=https%3A%2F%2Ffonts.googleapis.com%2Fcss%3Ffamily%3DPoppins;" parent="1" vertex="1">
          <mxGeometry x="411.47" y="177" width="239.05" height="25" as="geometry" />
        </mxCell>
      </root>
    </mxGraphModel>
  </diagram>
</mxfile>
